# xmcd
#
# Track frame offsets:
#	150
#	12727
#	28302
#	39825
#	54387
#	66483
#	81721
#	96501
#	111508
#	128590
#	143736
#	158208
#	174943
#	189654
#	203372
#	222129
#	240047
#
# Disc length: 3430 seconds
#
# Revision: 2
# Processed by: cddbd v1.5.1PL2 Copyright (c) Steve Scherf et al.
# Submitted via: EasyCDDAExtractor 9.0.0.1
#
DISCID=ed0d6411
DTITLE=Dolly Parton - Legendary Dolly Parton [CD2]
DYEAR=2000
DGENRE=Country
TTITLE0=9 To 5
TTITLE1=Old Flames
TTITLE2=Baby I'm Burnin
TTITLE3=Sweet Summer Lovin'
TTITLE4=Bargain Store
TTITLE5=Think About Love
TTITLE6=Seeker
TTITLE7=Don't Call It Love
TTITLE8=Save The Last Dance For Me
TTITLE9=You're The Only One
TTITLE10=Heartbreak Express
TTITLE11=Single Women
TTITLE12=Potential New Boyfriend
TTITLE13=Two Doors Down
TTITLE14=Islands In The Stream
TTITLE15=Strarting Over Again
TTITLE16=We Had It All
EXTD=ID3G: 2
EXTT0=
EXTT1=
EXTT2=
EXTT3=
EXTT4=
EXTT5=
EXTT6=
EXTT7=
EXTT8=
EXTT9=
EXTT10=
EXTT11=
EXTT12=
EXTT13=
EXTT14=
EXTT15=
EXTT16=
PLAYORDER=
